# xmcd
#
# Track frame offsets:
#	150
#	12942
#	30563
#	42801
#	64194
#	90541
#	98510
#	106978
#	129515
#	144810
#	148795
#	160895
#	179112
#	198083
#	219728
#	233072
#	248484
#	288437
#
# Disc length: 4328 seconds
#
# Revision: 1
# Processed by: cddbd v1.5.2PL0 Copyright (c) Steve Scherf et al.
# Submitted via: EZCDAudioConverter 7.0.6.1
#
DISCID=f310e612
DTITLE=The Residents - 80 Aching Orphans 3/4
DYEAR=2017
DGENRE=
TTITLE0=A Maze Of Jigsaws
TTITLE1=Beyond The Valley Of A Day In The Life
TTITLE2=The Mad Sawmill Of Copenhagen, Germany
TTITLE3=Jambalaya
TTITLE4=Cry For The Fire
TTITLE5=Smelly Tongues [Mono]
TTITLE6=Santa Dog '78
TTITLE7=Floating Down The Nile (Part 2)
TTITLE8=The Marvels Of Mayhem
TTITLE9=Earth Vs The Flying Saucers
TTITLE10=Hello Skinny
TTITLE11=The Monkey Man
TTITLE12=Mahogany Wood
TTITLE13=Edweena [Extract]
TTITLE14=Melon Collie Lassie
TTITLE15=The Sleepwalker
TTITLE16=The Knife Fight
TTITLE17=Holy Kiss Of Flesh [Edit]
EXTD=
EXTT0=
EXTT1=
EXTT2=
EXTT3=
EXTT4=
EXTT5=
EXTT6=
EXTT7=
EXTT8=
EXTT9=
EXTT10=
EXTT11=
EXTT12=
EXTT13=
EXTT14=
EXTT15=
EXTT16=
EXTT17=
PLAYORDER=
